<svg width="288" height="84" viewBox="0 0 288 84" fill="none" xmlns="http://www.w3.org/2000/svg">
<g clip-path="url(#clip0_433_4784)">
<rect width="288" height="84" rx="10" fill="white"/>
<path d="M231 0C230.108 19.0895 226.805 27.9131 216 41.5C226.592 55.8703 230.29 65.0455 231 84H501L499.5 0H231Z" fill="#D94F4E"/>
<path d="M40.22 50.3C38.76 50.3 37.44 50.04 36.26 49.52C35.08 48.98 34.06 48.24 33.2 47.3C32.34 46.36 31.67 45.26 31.19 44C30.73 42.74 30.5 41.38 30.5 39.92C30.5 38.48 30.73 37.14 31.19 35.9C31.67 34.64 32.34 33.54 33.2 32.6C34.06 31.66 35.08 30.93 36.26 30.41C37.44 29.87 38.76 29.6 40.22 29.6C41.68 29.6 43 29.87 44.18 30.41C45.38 30.93 46.4 31.66 47.24 32.6C48.1 33.54 48.76 34.64 49.22 35.9C49.7 37.14 49.94 38.48 49.94 39.92C49.94 41.38 49.7 42.74 49.22 44C48.76 45.26 48.1 46.36 47.24 47.3C46.4 48.24 45.38 48.98 44.18 49.52C43 50.04 41.68 50.3 40.22 50.3ZM40.25 47.81C41.77 47.81 43.05 47.48 44.09 46.82C45.13 46.14 45.91 45.21 46.43 44.03C46.97 42.83 47.24 41.46 47.24 39.92C47.24 38.38 46.97 37.03 46.43 35.87C45.91 34.69 45.13 33.76 44.09 33.08C43.05 32.4 41.77 32.06 40.25 32.06C38.73 32.06 37.44 32.4 36.38 33.08C35.34 33.76 34.56 34.69 34.04 35.87C33.52 37.03 33.26 38.38 33.26 39.92C33.26 41.46 33.52 42.83 34.04 44.03C34.56 45.21 35.34 46.14 36.38 46.82C37.44 47.48 38.73 47.81 40.25 47.81ZM58.0979 50.3C57.1579 50.3 56.3379 50.12 55.6379 49.76C54.9379 49.38 54.3979 48.83 54.0179 48.11C53.6579 47.39 53.4779 46.53 53.4779 45.53V35.48H56.0579V44.9C56.0579 45.84 56.2879 46.61 56.7479 47.21C57.2079 47.81 58.0479 48.11 59.2679 48.11C60.2079 48.11 60.9579 47.91 61.5179 47.51C62.0779 47.11 62.4779 46.58 62.7179 45.92C62.9779 45.26 63.1079 44.53 63.1079 43.73L63.2879 44.96C63.1879 45.86 62.9379 46.72 62.5379 47.54C62.1579 48.34 61.5979 49 60.8579 49.52C60.1379 50.04 59.2179 50.3 58.0979 50.3ZM65.6879 50H63.1079V35.48H65.6879V50ZM72.2319 50H69.6519V35.48H72.2319V50ZM72.2319 41.78L72.0519 40.55C72.1319 39.87 72.2819 39.21 72.5019 38.57C72.7419 37.93 73.0519 37.36 73.4319 36.86C73.8319 36.34 74.3119 35.93 74.8719 35.63C75.4319 35.33 76.0719 35.18 76.7919 35.18C77.5719 35.18 78.2719 35.44 78.8919 35.96C79.5319 36.48 79.8519 37.26 79.8519 38.3C79.8519 38.92 79.7819 39.45 79.6419 39.89C79.5219 40.31 79.4019 40.61 79.2819 40.79H76.4319C76.6719 40.57 76.8719 40.26 77.0319 39.86C77.2119 39.46 77.3019 39.06 77.3019 38.66C77.3019 38.24 77.1819 37.88 76.9419 37.58C76.7219 37.26 76.3419 37.1 75.8019 37.1C75.1819 37.1 74.6019 37.32 74.0619 37.76C73.5219 38.2 73.0819 38.77 72.7419 39.47C72.4019 40.17 72.2319 40.94 72.2319 41.78ZM96.9406 50.3C95.6806 50.3 94.4806 50.13 93.3406 49.79C92.2006 49.45 91.2006 48.9 90.3406 48.14C89.4806 47.38 88.8306 46.38 88.3906 45.14L90.3706 43.4C90.6906 44.48 91.2006 45.35 91.9006 46.01C92.6206 46.65 93.4306 47.12 94.3306 47.42C95.2506 47.7 96.1206 47.84 96.9406 47.84C97.6806 47.84 98.3706 47.74 99.0106 47.54C99.6506 47.34 100.151 47.01 100.511 46.55C100.891 46.09 101.081 45.5 101.081 44.78C101.081 44 100.891 43.4 100.511 42.98C100.151 42.56 99.6406 42.23 98.9806 41.99C98.3206 41.73 97.5406 41.49 96.6406 41.27L94.7506 40.85C94.0706 40.69 93.3906 40.49 92.7106 40.25C92.0506 40.01 91.4406 39.68 90.8806 39.26C90.3206 38.84 89.8706 38.31 89.5306 37.67C89.1906 37.03 89.0206 36.23 89.0206 35.27C89.0206 34.03 89.3306 33 89.9506 32.18C90.5906 31.34 91.4206 30.71 92.4406 30.29C93.4806 29.85 94.5806 29.63 95.7406 29.63C97.5606 29.63 99.1506 30.02 100.511 30.8C101.871 31.58 102.861 32.72 103.481 34.22L101.291 35.96C100.811 34.6 100.081 33.62 99.1006 33.02C98.1406 32.42 97.0006 32.12 95.6806 32.12C94.9406 32.12 94.2806 32.24 93.7006 32.48C93.1206 32.72 92.6606 33.06 92.3206 33.5C91.9806 33.94 91.8106 34.47 91.8106 35.09C91.8106 36.09 92.1506 36.83 92.8306 37.31C93.5106 37.77 94.4206 38.14 95.5606 38.42L97.7806 38.96C98.5006 39.14 99.2106 39.36 99.9106 39.62C100.631 39.88 101.271 40.22 101.831 40.64C102.411 41.06 102.871 41.6 103.211 42.26C103.571 42.9 103.751 43.72 103.751 44.72C103.751 45.88 103.451 46.88 102.851 47.72C102.271 48.54 101.461 49.18 100.421 49.64C99.4006 50.08 98.2406 50.3 96.9406 50.3ZM113.42 50.3C112.06 50.3 110.85 49.99 109.79 49.37C108.75 48.75 107.93 47.88 107.33 46.76C106.75 45.62 106.46 44.28 106.46 42.74C106.46 41.2 106.75 39.87 107.33 38.75C107.91 37.61 108.71 36.73 109.73 36.11C110.77 35.49 111.95 35.18 113.27 35.18C114.63 35.18 115.8 35.47 116.78 36.05C117.78 36.61 118.54 37.41 119.06 38.45C119.6 39.49 119.87 40.73 119.87 42.17C119.87 42.39 119.86 42.61 119.84 42.83C119.82 43.03 119.79 43.2 119.75 43.34H108.44V41.45H118.19L117.56 42.35C117.56 40.71 117.18 39.47 116.42 38.63C115.66 37.79 114.61 37.37 113.27 37.37C111.95 37.37 110.9 37.81 110.12 38.69C109.36 39.55 108.98 40.85 108.98 42.59V42.92C108.98 44.02 109.16 44.96 109.52 45.74C109.88 46.52 110.39 47.12 111.05 47.54C111.73 47.94 112.52 48.14 113.42 48.14C114.4 48.14 115.19 47.99 115.79 47.69C116.41 47.39 116.9 47.02 117.26 46.58C117.62 46.12 117.89 45.69 118.07 45.29L119.66 47.09C119.12 47.95 118.34 48.7 117.32 49.34C116.3 49.98 115 50.3 113.42 50.3ZM125.757 50H123.177V35.48H125.757V50ZM125.757 41.78L125.577 40.55C125.657 39.87 125.807 39.21 126.027 38.57C126.267 37.93 126.577 37.36 126.957 36.86C127.357 36.34 127.837 35.93 128.397 35.63C128.957 35.33 129.597 35.18 130.317 35.18C131.097 35.18 131.797 35.44 132.417 35.96C133.057 36.48 133.377 37.26 133.377 38.3C133.377 38.92 133.307 39.45 133.167 39.89C133.047 40.31 132.927 40.61 132.807 40.79H129.957C130.197 40.57 130.397 40.26 130.557 39.86C130.737 39.46 130.827 39.06 130.827 38.66C130.827 38.24 130.707 37.88 130.467 37.58C130.247 37.26 129.867 37.1 129.327 37.1C128.707 37.1 128.127 37.32 127.587 37.76C127.047 38.2 126.607 38.77 126.267 39.47C125.927 40.17 125.757 40.94 125.757 41.78ZM142.378 50H139.078L133.828 35.48H136.648L139.528 44.09L140.788 48.08L142.018 44.09L144.868 35.48H147.658L142.378 50ZM152.388 33.14H149.808V29.9H152.388V33.14ZM152.388 50H149.808V35.48H152.388V50ZM162.371 50.3C160.971 50.3 159.761 49.99 158.741 49.37C157.721 48.75 156.931 47.87 156.371 46.73C155.811 45.59 155.531 44.26 155.531 42.74C155.531 41.2 155.811 39.87 156.371 38.75C156.931 37.61 157.721 36.73 158.741 36.11C159.761 35.49 160.971 35.18 162.371 35.18C164.251 35.18 165.751 35.67 166.871 36.65C167.991 37.61 168.721 38.82 169.061 40.28L166.511 41.33C166.371 40.17 165.971 39.22 165.311 38.48C164.671 37.74 163.701 37.37 162.401 37.37C161.521 37.37 160.761 37.58 160.121 38C159.501 38.42 159.021 39.03 158.681 39.83C158.341 40.63 158.171 41.6 158.171 42.74C158.171 43.88 158.341 44.85 158.681 45.65C159.021 46.45 159.501 47.07 160.121 47.51C160.761 47.93 161.521 48.14 162.401 48.14C163.701 48.14 164.671 47.77 165.311 47.03C165.971 46.27 166.371 45.32 166.511 44.18L169.061 45.2C168.721 46.66 167.991 47.88 166.871 48.86C165.751 49.82 164.251 50.3 162.371 50.3ZM178.107 50.3C176.747 50.3 175.537 49.99 174.477 49.37C173.437 48.75 172.617 47.88 172.017 46.76C171.437 45.62 171.147 44.28 171.147 42.74C171.147 41.2 171.437 39.87 172.017 38.75C172.597 37.61 173.397 36.73 174.417 36.11C175.457 35.49 176.637 35.18 177.957 35.18C179.317 35.18 180.487 35.47 181.467 36.05C182.467 36.61 183.227 37.41 183.747 38.45C184.287 39.49 184.557 40.73 184.557 42.17C184.557 42.39 184.547 42.61 184.527 42.83C184.507 43.03 184.477 43.2 184.437 43.34H173.127V41.45H182.877L182.247 42.35C182.247 40.71 181.867 39.47 181.107 38.63C180.347 37.79 179.297 37.37 177.957 37.37C176.637 37.37 175.587 37.81 174.807 38.69C174.047 39.55 173.667 40.85 173.667 42.59V42.92C173.667 44.02 173.847 44.96 174.207 45.74C174.567 46.52 175.077 47.12 175.737 47.54C176.417 47.94 177.207 48.14 178.107 48.14C179.087 48.14 179.877 47.99 180.477 47.69C181.097 47.39 181.587 47.02 181.947 46.58C182.307 46.12 182.577 45.69 182.757 45.29L184.347 47.09C183.807 47.95 183.027 48.7 182.007 49.34C180.987 49.98 179.687 50.3 178.107 50.3ZM193.27 50.3C192.27 50.3 191.31 50.15 190.39 49.85C189.47 49.55 188.67 49.11 187.99 48.53C187.33 47.93 186.83 47.18 186.49 46.28L188.38 44.81C188.56 45.35 188.85 45.88 189.25 46.4C189.67 46.9 190.22 47.31 190.9 47.63C191.58 47.95 192.4 48.11 193.36 48.11C194.22 48.11 194.91 47.95 195.43 47.63C195.95 47.29 196.21 46.8 196.21 46.16C196.21 45.5 195.91 45.03 195.31 44.75C194.73 44.47 194.02 44.23 193.18 44.03L191.26 43.58C190.58 43.42 189.91 43.19 189.25 42.89C188.59 42.57 188.04 42.14 187.6 41.6C187.16 41.04 186.94 40.32 186.94 39.44C186.94 38.12 187.41 37.08 188.35 36.32C189.29 35.56 190.55 35.18 192.13 35.18C193.67 35.18 194.95 35.53 195.97 36.23C197.01 36.93 197.73 37.76 198.13 38.72L196.15 40.19C195.79 39.33 195.26 38.65 194.56 38.15C193.88 37.65 193.02 37.4 191.98 37.4C191.22 37.4 190.6 37.56 190.12 37.88C189.64 38.2 189.4 38.67 189.4 39.29C189.4 39.93 189.64 40.4 190.12 40.7C190.62 41 191.36 41.27 192.34 41.51L194.2 41.99C195.84 42.37 196.97 42.91 197.59 43.61C198.23 44.29 198.55 45.13 198.55 46.13C198.55 47.09 198.3 47.88 197.8 48.5C197.32 49.1 196.68 49.55 195.88 49.85C195.1 50.15 194.23 50.3 193.27 50.3Z" fill="#D94F4E"/>
<path d="M257.676 29.7319C257.276 29.3318 256.624 29.3431 256.238 29.7567L255.655 30.3818C255.289 30.7738 255.297 31.3847 255.674 31.7664L264.585 40.7977C264.969 41.1871 264.969 41.8129 264.585 42.2023L255.674 51.2336C255.297 51.6153 255.289 52.2262 255.655 52.6182L256.238 53.2433C256.624 53.6569 257.276 53.6682 257.676 53.2681L268.737 42.2071C269.128 41.8166 269.128 41.1834 268.737 40.7929L257.676 29.7319Z" fill="white"/>
</g>
<defs>
<clipPath id="clip0_433_4784">
<rect width="288" height="84" rx="10" fill="white"/>
</clipPath>
</defs>
</svg>
