<svg width="70" height="71" viewBox="0 0 70 71" fill="none" xmlns="http://www.w3.org/2000/svg">
<g filter="url(#filter0_d_864_1017)">
<rect x="65.9639" y="62.7266" width="61.8182" height="61.8182" rx="30.9091" transform="rotate(-180 65.9639 62.7266)" fill="#D94F4E"/>
</g>
<path d="M37.236 18.4492C34.8612 18.4489 32.535 19.1215 30.5268 20.3891C28.5186 21.6566 26.9107 23.4673 25.8894 25.6111C24.8681 27.755 24.4753 30.1444 24.7563 32.5024C25.0374 34.8604 25.9809 37.0905 27.4775 38.9343L18.9843 47.4271C18.7511 47.6588 18.6143 47.9701 18.6015 48.2986C18.5887 48.627 18.7008 48.9481 18.9152 49.1973C19.1296 49.4464 19.4305 49.6051 19.7572 49.6413C20.0839 49.6775 20.4122 49.5887 20.676 49.3926L20.8216 49.2661L29.3165 40.7732C30.8785 42.0404 32.7217 42.9142 34.6915 43.3212C36.6612 43.7281 38.6999 43.6563 40.6361 43.1118C42.5723 42.5673 44.3496 41.566 45.8185 40.1921C47.2874 38.8182 48.405 37.1117 49.0774 35.2162C49.7499 33.3207 49.9575 31.2915 49.6828 29.299C49.4081 27.3066 48.6592 25.4093 47.4989 23.7664C46.3387 22.1235 44.801 20.7831 43.0151 19.8579C41.2292 18.9326 39.2474 18.4495 37.236 18.4492ZM37.236 21.0491C38.5448 21.0491 39.8408 21.3068 41.05 21.8077C42.2592 22.3085 43.3579 23.0426 44.2834 23.9681C45.2089 24.8935 45.943 25.9921 46.4439 27.2013C46.9447 28.4104 47.2025 29.7064 47.2025 31.0151C47.2025 32.3239 46.9447 33.6198 46.4439 34.829C45.943 36.0381 45.2089 37.1368 44.2834 38.0622C43.3579 38.9876 42.2592 39.7217 41.05 40.2226C39.8408 40.7234 38.5448 40.9812 37.236 40.9812C34.5927 40.9812 32.0577 39.9312 30.1886 38.0622C28.3196 36.1932 27.2695 33.6583 27.2695 31.0151C27.2695 28.372 28.3196 25.8371 30.1886 23.9681C32.0577 22.0991 34.5927 21.0491 37.236 21.0491Z" fill="white"/>
<defs>
<filter id="filter0_d_864_1017" x="0.145752" y="0.910156" width="69.8181" height="69.8164" filterUnits="userSpaceOnUse" color-interpolation-filters="sRGB">
<feFlood flood-opacity="0" result="BackgroundImageFix"/>
<feColorMatrix in="SourceAlpha" type="matrix" values="0 0 0 0 0 0 0 0 0 0 0 0 0 0 0 0 0 0 127 0" result="hardAlpha"/>
<feOffset dy="4"/>
<feGaussianBlur stdDeviation="2"/>
<feComposite in2="hardAlpha" operator="out"/>
<feColorMatrix type="matrix" values="0 0 0 0 0.3125 0 0 0 0 0.3125 0 0 0 0 0.3125 0 0 0 0.25 0"/>
<feBlend mode="normal" in2="BackgroundImageFix" result="effect1_dropShadow_864_1017"/>
<feBlend mode="normal" in="SourceGraphic" in2="effect1_dropShadow_864_1017" result="shape"/>
</filter>
</defs>
</svg>
