<svg width="554" height="851" viewBox="0 0 554 851" fill="none" xmlns="http://www.w3.org/2000/svg">
<rect width="554" height="851" rx="180" fill="#0DBFE7"/>
<path d="M155.1 271H126.9V257.5H155.1C159.7 257.5 163.367 256.967 166.1 255.9C168.9 254.767 170.933 252.767 172.2 249.9C173.533 246.967 174.2 242.833 174.2 237.5C174.2 232.1 173.533 227.967 172.2 225.1C170.933 222.233 168.9 220.267 166.1 219.2C163.367 218.067 159.7 217.5 155.1 217.5H126.9V204H155.1C162.3 204 168.5 205.333 173.7 208C178.967 210.667 183.033 214.5 185.9 219.5C188.767 224.5 190.2 230.5 190.2 237.5C190.2 244.5 188.767 250.5 185.9 255.5C183.033 260.5 178.967 264.333 173.7 267C168.5 269.667 162.3 271 155.1 271ZM137.8 271H122.8L122.8 204H137.8L137.8 271ZM223.307 272C217.774 272 212.874 271.067 208.607 269.2C204.34 267.333 201.04 264.467 198.707 260.6C196.374 256.733 195.207 251.867 195.207 246C195.207 240.667 196.374 236.067 198.707 232.2C201.04 228.267 204.274 225.233 208.407 223.1C212.607 220.967 217.474 219.9 223.007 219.9C228.474 219.9 233.24 220.833 237.307 222.7C241.44 224.567 244.64 227.333 246.907 231C249.174 234.6 250.307 239 250.307 244.2C250.307 245.067 250.274 245.867 250.207 246.6C250.14 247.333 250.04 248.133 249.907 249H204.907V241.1H239.307L235.907 246C235.907 245.333 235.907 244.7 235.907 244.1C235.907 243.5 235.907 242.9 235.907 242.3C235.907 238.5 234.874 235.767 232.807 234.1C230.74 232.433 227.374 231.6 222.707 231.6C217.64 231.6 214.107 232.6 212.107 234.6C210.107 236.533 209.107 239.633 209.107 243.9V247.7C209.107 251.967 210.107 255.1 212.107 257.1C214.107 259.033 217.674 260 222.807 260C227.207 260 230.307 259.433 232.107 258.3C233.907 257.167 234.807 255.533 234.807 253.4V252.4H249.807V253.5C249.807 257.1 248.707 260.3 246.507 263.1C244.307 265.9 241.207 268.1 237.207 269.7C233.274 271.233 228.64 272 223.307 272ZM281.968 272C273.568 272 267.101 270.433 262.568 267.3C258.035 264.1 255.768 259.6 255.768 253.8V253.5L270.768 253.5V254.4C270.768 256.667 271.568 258.2 273.168 259C274.835 259.733 277.801 260.1 282.068 260.1C286.068 260.1 288.701 259.767 289.968 259.1C291.301 258.367 291.968 257.267 291.968 255.8C291.968 254.4 291.468 253.433 290.468 252.9C289.468 252.3 287.501 251.8 284.568 251.4L270.468 249.7C265.468 249.167 261.601 247.767 258.868 245.5C256.201 243.233 254.868 239.967 254.868 235.7C254.868 232.767 255.735 230.133 257.468 227.8C259.201 225.4 261.868 223.5 265.468 222.1C269.135 220.633 273.835 219.9 279.568 219.9C285.035 219.9 289.668 220.6 293.468 222C297.335 223.333 300.268 225.367 302.268 228.1C304.268 230.833 305.268 234.233 305.268 238.3V238.6H290.268V238C290.268 236.6 289.968 235.467 289.368 234.6C288.835 233.667 287.735 232.967 286.068 232.5C284.468 232.033 282.135 231.8 279.068 231.8C275.335 231.8 272.835 232.167 271.568 232.9C270.301 233.567 269.668 234.7 269.668 236.3C269.668 237.567 270.168 238.533 271.168 239.2C272.235 239.8 274.401 240.333 277.668 240.8L288.368 242.1C295.035 242.833 299.768 244.367 302.568 246.7C305.368 249.033 306.768 252.267 306.768 256.4C306.768 259.533 305.768 262.267 303.768 264.6C301.768 266.933 298.935 268.767 295.268 270.1C291.601 271.367 287.168 272 281.968 272ZM327.82 271H312.82V220.9H327.82V271ZM327.82 215.8H312.82V204H327.82V215.8ZM363.672 289C358.272 289 353.572 288.2 349.572 286.6C345.639 285.067 342.605 282.833 340.472 279.9C338.339 276.967 337.272 273.4 337.272 269.2H352.272C352.272 271 352.572 272.433 353.172 273.5C353.839 274.633 355.072 275.4 356.872 275.8C358.672 276.267 361.272 276.5 364.672 276.5C367.872 276.5 370.372 276.2 372.172 275.6C374.039 275 375.339 273.833 376.072 272.1C376.805 270.433 377.172 267.967 377.172 264.7V234.7L378.172 234.4V220.9H392.172V263.7C392.172 269.567 391.039 274.333 388.772 278C386.505 281.733 383.239 284.5 378.972 286.3C374.772 288.1 369.672 289 363.672 289ZM357.672 265.9C352.672 265.9 348.439 264.967 344.972 263.1C341.505 261.233 338.839 258.567 336.972 255.1C335.105 251.633 334.172 247.567 334.172 242.9C334.172 238.233 335.139 234.2 337.072 230.8C339.005 227.333 341.772 224.667 345.372 222.8C348.972 220.867 353.272 219.9 358.272 219.9C363.405 219.9 367.672 221 371.072 223.2C374.472 225.4 376.572 228.667 377.372 233H380.172L379.072 242.3H377.172C377.172 240.033 376.639 238.233 375.572 236.9C374.505 235.5 372.939 234.5 370.872 233.9C368.805 233.233 366.205 232.9 363.072 232.9C359.872 232.9 357.239 233.233 355.172 233.9C353.172 234.5 351.672 235.533 350.672 237C349.739 238.4 349.272 240.367 349.272 242.9C349.272 245.367 349.739 247.333 350.672 248.8C351.672 250.267 353.172 251.333 355.172 252C357.172 252.667 359.739 253 362.872 253C367.672 253 371.239 252.267 373.572 250.8C375.972 249.333 377.172 246.867 377.172 243.4H379.072V253.4H376.372C375.572 257.133 373.639 260.167 370.572 262.5C367.505 264.767 363.205 265.9 357.672 265.9ZM455.525 271H440.525V244.8C440.525 240.733 439.592 237.833 437.725 236.1C435.858 234.3 432.625 233.4 428.025 233.4C423.225 233.4 419.858 234.4 417.925 236.4C416.058 238.333 415.125 241.433 415.125 245.7H413.225L412.125 236.3H414.925C415.392 233.5 416.392 230.867 417.925 228.4C419.458 225.867 421.625 223.833 424.425 222.3C427.292 220.7 430.925 219.9 435.325 219.9C439.858 219.9 443.625 220.8 446.625 222.6C449.625 224.333 451.858 226.7 453.325 229.7C454.792 232.7 455.525 236.067 455.525 239.8V271ZM415.125 271H400.125V220.9H414.025V236.5L415.125 237V271Z" fill="white"/>
<path d="M240.4 147C233.133 147 227.067 145.833 222.2 143.5C217.333 141.167 213.667 137.833 211.2 133.5C208.733 129.167 207.5 124 207.5 118V79H222.5V116.9C222.5 120.7 223.033 123.767 224.1 126.1C225.233 128.367 227.1 130 229.7 131C232.367 131.933 235.933 132.4 240.4 132.4C245 132.4 248.6 131.933 251.2 131C253.8 130 255.633 128.367 256.7 126.1C257.767 123.767 258.3 120.7 258.3 116.9V79H273.3V118C273.3 124 272.067 129.167 269.6 133.5C267.133 137.833 263.467 141.167 258.6 143.5C253.8 145.833 247.733 147 240.4 147ZM295.952 146H276.352L302.452 112.9V111.8L276.352 79H295.952L314.752 102.9H315.852L333.952 79H353.552L327.552 112.1V113.2L353.552 146H333.952L315.252 121.8H314.152L295.952 146Z" fill="white"/>
<g clip-path="url(#clip0_569_4711)">
<rect x="307.109" y="431.828" width="163.316" height="357.605" rx="16.8947" fill="#F8F2F2"/>
<rect x="275.353" y="417.746" width="226.828" height="117.325" rx="7.50878" fill="#C3C3C3"/>
<line y1="-0.469299" x2="246.425" y2="-0.469299" transform="matrix(0.893983 0.4481 -0.573789 0.819003 278.617 421.891)" stroke="#A5A3A3" stroke-width="0.938597"/>
<line y1="-0.469299" x2="243.736" y2="-0.469299" transform="matrix(0.897154 -0.441719 0.566908 0.823781 280.248 530.922)" stroke="#A5A3A3" stroke-width="0.938597"/>
<rect x="315.558" y="476.879" width="113.57" height="7.50878" rx="3.75439" fill="#9A9999"/>
<g clip-path="url(#clip1_569_4711)">
<rect x="307.109" y="500.344" width="163.316" height="299.413" rx="16.8947" fill="#F8F2F2"/>
<rect x="321.188" y="521.938" width="58.5685" height="18.7719" rx="7.50878" fill="#C3C3C3"/>
<rect x="385.013" y="521.938" width="58.5685" height="18.7719" rx="7.50878" fill="#DAD7D7"/>
<rect x="329.636" y="529.445" width="42.2369" height="3.75439" rx="1.87719" fill="#9A9999"/>
<rect x="393.46" y="529.445" width="42.2369" height="3.75439" rx="1.87719" fill="#9A9999"/>
<rect x="321.189" y="570.738" width="96.6755" height="3.75439" rx="1.87719" fill="#9A9999"/>
<rect x="321.189" y="579.188" width="140.79" height="2.81579" rx="1.4079" fill="#D5D2D2"/>
<rect x="321.189" y="552.906" width="31.9123" height="2.81579" rx="1.4079" fill="#D5D2D2"/>
<rect x="321.189" y="617.668" width="96.6755" height="3.75439" rx="1.87719" fill="#9A9999"/>
<rect x="321.189" y="626.121" width="140.79" height="2.81579" rx="1.4079" fill="#D5D2D2"/>
<rect x="321.189" y="599.84" width="31.9123" height="2.81579" rx="1.4079" fill="#D5D2D2"/>
<rect x="321.189" y="664.602" width="96.6755" height="3.75439" rx="1.87719" fill="#9A9999"/>
<rect x="321.189" y="673.051" width="140.79" height="2.81579" rx="1.4079" fill="#D5D2D2"/>
<rect x="321.189" y="646.77" width="31.9123" height="2.81579" rx="1.4079" fill="#D5D2D2"/>
<rect x="321.188" y="688.066" width="140.79" height="30.0351" rx="2.81579" fill="#C3C3C3"/>
<rect x="321.188" y="722.793" width="140.79" height="30.0351" rx="2.81579" fill="#C3C3C3"/>
<rect x="325.881" y="696.52" width="52.5614" height="3.75439" rx="1.87719" fill="#9A9A9A"/>
<rect x="436.636" y="696.52" width="17.8333" height="3.75439" rx="1.87719" fill="#9A9A9A"/>
<rect x="325.881" y="705.91" width="22.5263" height="3.75439" rx="1.87719" fill="#E7E4E4"/>
<rect x="325.881" y="731.234" width="52.5614" height="3.75439" rx="1.87719" fill="#9A9A9A"/>
<rect x="436.636" y="731.234" width="17.8333" height="3.75439" rx="1.87719" fill="#9A9A9A"/>
<rect x="325.881" y="740.625" width="88.2281" height="3.75439" rx="1.87719" fill="#E7E4E4"/>
<rect x="403.785" y="762.215" width="58.5685" height="18.7719" rx="7.50878" fill="#C3C3C3"/>
<rect x="412.232" y="769.727" width="42.2369" height="3.75439" rx="1.87719" fill="#9A9999"/>
<circle cx="329.166" cy="771.129" r="3.28509" fill="#9A9A9A"/>
<circle cx="340.43" cy="771.129" r="3.28509" fill="#C3C3C3"/>
<circle cx="351.693" cy="771.129" r="3.28509" fill="#C3C3C3"/>
</g>
</g>
<g clip-path="url(#clip2_569_4711)">
<rect x="84" y="364" width="194.551" height="426" rx="20.126" fill="#F8F2F2"/>
<rect x="98.5352" y="412.078" width="135.291" height="8.94488" rx="4.47244" fill="#C3C3C3"/>
<rect x="98.5352" y="514.945" width="55.9055" height="5.59055" rx="2.79528" fill="#D5D2D2"/>
<rect x="100.771" y="684.895" width="55.9055" height="5.59055" rx="2.79528" fill="#D5D2D2"/>
<rect x="144.378" y="783.293" width="73.7953" height="2.23622" rx="1.11811" fill="#9C9D9E"/>
<rect x="98.5352" y="640.176" width="65.9685" height="3.35433" rx="1.67717" fill="#D5D2D2"/>
<rect x="214.819" y="640.176" width="39.1339" height="3.35433" rx="1.67717" fill="#D5D2D2"/>
<rect x="168.977" y="514.945" width="55.9055" height="5.59055" rx="2.79528" fill="#D5D2D2"/>
<rect x="239.417" y="514.945" width="55.9055" height="5.59055" rx="2.79528" fill="#D5D2D2"/>
<rect x="98.5352" y="440.031" width="158.772" height="8.94488" rx="4.47244" fill="#C3C3C3"/>
<rect x="98.5352" y="469.102" width="166.598" height="27.9528" rx="13.9764" fill="#C3C3C3"/>
<path d="M248.332 476.93C247.481 476.93 246.647 477.171 245.927 477.625C245.208 478.079 244.631 478.728 244.265 479.496C243.899 480.265 243.759 481.121 243.859 481.966C243.96 482.811 244.298 483.61 244.835 484.271L241.791 487.314C241.707 487.397 241.658 487.509 241.654 487.627C241.649 487.744 241.689 487.86 241.766 487.949C241.843 488.038 241.951 488.095 242.068 488.108C242.185 488.121 242.303 488.089 242.397 488.019L242.449 487.973L245.494 484.93C246.053 485.384 246.714 485.697 247.42 485.843C248.126 485.989 248.856 485.963 249.55 485.768C250.244 485.573 250.881 485.214 251.407 484.722C251.934 484.229 252.334 483.618 252.575 482.938C252.816 482.259 252.891 481.532 252.792 480.818C252.694 480.104 252.425 479.424 252.01 478.835C251.594 478.246 251.043 477.766 250.403 477.434C249.763 477.103 249.053 476.93 248.332 476.93ZM248.332 477.861C248.801 477.861 249.265 477.954 249.699 478.133C250.132 478.313 250.526 478.576 250.857 478.907C251.189 479.239 251.452 479.633 251.632 480.066C251.811 480.499 251.903 480.964 251.903 481.433C251.903 481.902 251.811 482.366 251.632 482.8C251.452 483.233 251.189 483.627 250.857 483.958C250.526 484.29 250.132 484.553 249.699 484.733C249.265 484.912 248.801 485.004 248.332 485.004C247.384 485.004 246.476 484.628 245.806 483.958C245.136 483.289 244.76 482.38 244.76 481.433C244.76 480.486 245.136 479.577 245.806 478.907C246.476 478.238 247.384 477.861 248.332 477.861Z" fill="#676767"/>
<rect x="98.5347" y="538.422" width="155.417" height="95.0394" rx="8.94488" fill="#C3C3C3"/>
<line x1="101.056" y1="541.292" x2="252.001" y2="630.741" stroke="#A5A3A3" stroke-width="1.11811"/>
<line x1="101.608" y1="629.622" x2="251.435" y2="542.41" stroke="#A5A3A3" stroke-width="1.11811"/>
<rect x="101.89" y="700.551" width="38.0158" height="38.0158" rx="2.23622" fill="#C3C3C3"/>
<line y1="-0.559055" x2="51.4139" y2="-0.559055" transform="matrix(0.718128 0.695911 -0.340697 0.940173 102.437 701.891)" stroke="#A5A3A3" stroke-width="1.11811"/>
<line y1="-0.559055" x2="50.597" y2="-0.559055" transform="matrix(0.724316 -0.689468 0.335343 0.942096 102.711 737.227)" stroke="#A5A3A3" stroke-width="1.11811"/>
<rect x="152.204" y="700.551" width="38.0158" height="38.0158" rx="2.23622" fill="#C3C3C3"/>
<line y1="-0.559055" x2="51.4139" y2="-0.559055" transform="matrix(0.718128 0.695911 -0.340697 0.940173 152.751 701.891)" stroke="#A5A3A3" stroke-width="1.11811"/>
<line y1="-0.559055" x2="50.597" y2="-0.559055" transform="matrix(0.724316 -0.689468 0.335343 0.942096 153.025 737.227)" stroke="#A5A3A3" stroke-width="1.11811"/>
<rect x="202.52" y="700.551" width="38.0158" height="38.0158" rx="2.23622" fill="#C3C3C3"/>
<line y1="-0.559055" x2="51.4139" y2="-0.559055" transform="matrix(0.718128 0.695911 -0.340697 0.940173 203.067 701.891)" stroke="#A5A3A3" stroke-width="1.11811"/>
<line y1="-0.559055" x2="50.597" y2="-0.559055" transform="matrix(0.724316 -0.689468 0.335343 0.942096 203.341 737.227)" stroke="#A5A3A3" stroke-width="1.11811"/>
<rect x="252.834" y="700.551" width="38.0158" height="38.0158" rx="2.23622" fill="#C3C3C3"/>
<line y1="-0.559055" x2="51.4139" y2="-0.559055" transform="matrix(0.718128 0.695911 -0.340697 0.940173 253.381 701.891)" stroke="#A5A3A3" stroke-width="1.11811"/>
<line y1="-0.559055" x2="50.597" y2="-0.559055" transform="matrix(0.724316 -0.689468 0.335343 0.942096 253.655 737.227)" stroke="#A5A3A3" stroke-width="1.11811"/>
<rect x="257.307" y="538.422" width="155.417" height="95.0394" rx="8.94488" fill="#C3C3C3"/>
<line x1="259.828" y1="541.292" x2="410.773" y2="630.741" stroke="#A5A3A3" stroke-width="1.11811"/>
<line x1="260.38" y1="629.622" x2="410.207" y2="542.41" stroke="#A5A3A3" stroke-width="1.11811"/>
</g>
<defs>
<clipPath id="clip0_569_4711">
<rect x="307.109" y="431.828" width="163.316" height="357.605" rx="16.8947" fill="white"/>
</clipPath>
<clipPath id="clip1_569_4711">
<rect x="307.109" y="500.344" width="163.316" height="299.413" rx="16.8947" fill="white"/>
</clipPath>
<clipPath id="clip2_569_4711">
<rect x="84" y="364" width="194.551" height="426" rx="20.126" fill="white"/>
</clipPath>
</defs>
</svg>
